PathFileType	4	(X/Y/Z)	E:\Qualisys_Data\Carbon_Farble_Plate\Data\Amateur_Runner\S2\T1\S2T1V23_c3d.trc
DataRate	CameraRate	NumFrames	NumMarkers	Units	OrigDataRate	OrigDataStartFrame	OrigNumFrames
200.000000	200.000000	4	39	mm	200.000000	39	314
Frame#	Time	LSHO			RSHO			LICST			RICST			LASIS			LHEEL			RASIS			LTROC			RTROC			SACR			LTH1			LSK4			LTH2			LTH3			RHM5			LSK2			LTH4			RTH1			LTOE			RTH2			RTH3			RTH4			LLEP			RLEP			LSK1			LSK3			RSK1			LHM5			RSK2			LFT1			RSK3			RSK4			LLME			RLME			RTOE			RHEEL			RFT1			RFT2			LFT2			
		X1	Y1	Z1	X2	Y2	Z2	X3	Y3	Z3	X4	Y4	Z4	X5	Y5	Z5	X6	Y6	Z6	X7	Y7	Z7	X8	Y8	Z8	X9	Y9	Z9	X10	Y10	Z10	X11	Y11	Z11	X12	Y12	Z12	X13	Y13	Z13	X14	Y14	Z14	X15	Y15	Z15	X16	Y16	Z16	X17	Y17	Z17	X18	Y18	Z18	X19	Y19	Z19	X20	Y20	Z20	X21	Y21	Z21	X22	Y22	Z22	X23	Y23	Z23	X24	Y24	Z24	X25	Y25	Z25	X26	Y26	Z26	X27	Y27	Z27	X28	Y28	Z28	X29	Y29	Z29	X30	Y30	Z30	X31	Y31	Z31	X32	Y32	Z32	X33	Y33	Z33	X34	Y34	Z34	X35	Y35	Z35	X36	Y36	Z36	X37	Y37	Z37	X38	Y38	Z38	X39	Y39	Z39	

40	0.195	-2365.172607421875	1423.400756835938	-428.7472839355469	-2357.579833984375	1390.114868164062	-109.0325088500977	-2451.9697265625	957.0111694335938	-427.1386108398438	-2448.357666015625	950.762451171875	-120.320915222168	-2393.591552734375	909.0410766601562	-409.6919250488281	-2703.77099609375	500.3398742675781	-324.4820556640625	-2384.1435546875	909.517578125	-145.8766174316406	-2519.525390625	829.9454345703125	-420.9082641601562	-2530.739990234375	852.1195678710938	-122.0783004760742	-2535.86669921875	1001.18359375	-275.6671447753906	-2311.79345703125	630.7061767578125	-448.8946533203125	-2524.9697265625	492.4608764648438	-418.4380493164062	-2392.403076171875	604.1650390625	-452.9049377441406	-2278.89892578125	533.8422241210938	-436.5953674316406	-2509.52392578125	74.54232788085938	-171.2089996337891	-2428.091064453125	497.6877136230469	-441.5119934082031	-2360.21630859375	508.004638671875	-433.6524963378906	-2370.34716796875	589.6987915039062	-127.5294799804688	-2704.476806640625	256.27099609375	-348.1567077636719	-2447.26611328125	583.9774780273438	-126.3567581176758	-2363.454345703125	491.8240966796875	-156.7186737060547	-2444.022216796875	489.6264953613281	-151.0847473144531	-2314.346923828125	476.6217956542969	-438.616943359375	-2412.6533203125	454.2255554199219	-150.8734130859375	-2421.67236328125	419.6729431152344	-427.6502685546875	-2520.549072265625	414.29638671875	-413.0446472167969	-2427.305908203125	330.329833984375	-161.0797882080078	-2730.692138671875	308.1776428222656	-408.3294372558594	-2493.681884765625	371.55810546875	-142.7649383544922	-2727.157470703125	484.3119201660156	-294.7527160644531	-2483.277587890625	245.8669738769531	-176.1994781494141	-2547.873046875	288.1713562011719	-156.7165832519531	-2693.88427734375	443.1664123535156	-382.3338623046875	-2620.560302734375	123.6585922241211	-197.887939453125	-2454.3916015625	68.91627502441406	-240.3299865722656	-2692.577880859375	122.6363754272461	-254.0240325927734	-2682.02978515625	88.9074935913086	-280.0270385742188	-2694.99560546875	98.28219604492188	-224.6468353271484	-2732.06591796875	496.3924560546875	-347.5782775878906
41	0.2	-2348.169189453125	1426.552734375	-429.4307861328125	-2336.109375	1393.414916992188	-110.0034561157227	-2432.304443359375	960.5025634765624	-427.4500427246094	-2426.177490234375	953.1723022460938	-120.4840545654297	-2373.92919921875	912.3890991210938	-410.3353271484375	-2677.988525390625	492.3077392578125	-326.0582275390625	-2364.602294921875	910.1279296875	-146.7138366699219	-2499.221923828125	833.4353637695312	-422.3258056640625	-2511.18310546875	854.1311645507812	-122.3006820678711	-2515.694091796875	1003.726379394531	-274.7740783691406	-2286.778076171875	638.062744140625	-448.7000732421875	-2497.683349609375	491.9508361816406	-419.4547424316406	-2365.26953125	607.904541015625	-453.3357543945312	-2251.66162109375	541.8969116210938	-436.1965942382812	-2509.457275390625	75.16307067871094	-171.6275482177734	-2400.498046875	500.4919738769531	-441.4440612792969	-2332.065185546875	513.7083129882812	-433.4223022460938	-2360.788818359375	587.2774658203125	-127.1082000732422	-2664.57421875	248.5970306396484	-349.0531921386719	-2438.044189453125	584.40771484375	-127.0257034301758	-2356.54345703125	489.2341003417969	-156.8192291259766	-2437.036376953125	490.5416259765625	-151.1605377197266	-2285.366455078125	483.862060546875	-438.5742492675781	-2405.1533203125	454.7369384765625	-150.6846008300781	-2391.3330078125	422.7384643554688	-427.7161560058594	-2489.694580078125	413.6592407226562	-413.1438293457031	-2422.6552734375	330.9255676269531	-161.0121307373047	-2694.3466796875	300.1263732910156	-410.2806396484375	-2488.55029296875	373.8059692382812	-140.9306640625	-2697.9013671875	476.8220825195312	-295.6224670410156	-2479.654541015625	247.5095825195312	-177.1216583251953	-2544.437744140625	290.9561767578125	-157.5153503417969	-2665.28857421875	436.7513732910156	-383.9937438964844	-2618.837890625	126.3032684326172	-198.0136871337891	-2454.547119140625	68.75971984863281	-240.6439514160156	-2690.002197265625	124.6334075927734	-253.6409454345703	-2681.615966796875	91.33142852783205	-281.205078125	-2689.050048828125	101.1521148681641	-224.9423065185547	-2705.732666015625	488.2863464355469	-349.65234375
42	0.205	-2332.03564453125	1430.20751953125	-429.8037414550781	-2314.572021484375	1397.112915039062	-111.2983627319336	-2412.410400390625	963.6602783203124	-427.8850402832031	-2406.017333984375	955.9336547851562	-121.3879089355469	-2354.29931640625	916.3916015625	-410.3177185058594	-2652.27734375	484.2346801757812	-327.1580505371094	-2343.347412109375	912.6243896484376	-146.9414215087891	-2479.086669921875	837.4805908203125	-423.6844177246094	-2490.802490234375	855.9949951171875	-122.3866882324219	-2495.055419921875	1006.562927246094	-273.8928833007812	-2261.936279296875	645.955810546875	-448.1861572265625	-2469.901123046875	491.4031066894531	-419.9493103027344	-2339.65576171875	613.3642578125	-453.2966613769531	-2224.09765625	550.3279418945312	-435.4466857910156	-2508.853271484375	75.48982238769531	-171.7847595214844	-2372.7431640625	503.4461059570312	-441.0558471679688	-2304.094970703125	520.7623901367188	-432.7300109863281	-2349.183837890625	586.3566284179688	-127.3590621948242	-2628.33544921875	240.9047546386719	-350.3809204101562	-2427.095458984375	586.3970336914062	-127.4733810424805	-2349.478759765625	489.2312316894531	-157.5265655517578	-2428.88818359375	492.2273254394531	-151.3733825683594	-2257.36767578125	491.2819519042969	-438.0111389160156	-2397.852783203125	455.9964294433594	-150.7508544921875	-2360.90673828125	426.4755859375	-427.5074157714844	-2459.78173828125	413.7926635742188	-413.633056640625	-2417.121337890625	332.5558471679688	-161.147216796875	-2657.83056640625	291.041015625	-411.0790710449219	-2483.912841796875	376.0227966308594	-141.0418853759766	-2671.5498046875	467.2789916992188	-297.0827331542969	-2476.778564453125	249.4525299072266	-176.7609558105469	-2539.872314453125	293.9943237304688	-157.2303314208984	-2635.468994140625	428.4917602539062	-384.6249694824219	-2616.9609375	129.7689666748047	-198.3177032470703	-2454.685302734375	68.62775421142578	-240.9499664306641	-2687.722412109375	127.4068984985352	-254.3919372558594	-2679.9658203125	93.63184356689452	-281.7251892089844	-2693.020751953125	103.6374969482422	-226.6361083984375	-2674.912353515625	477.9887390136719	-352.009765625
43	0.21	-2315.485595703125	1434.009399414062	-430.3174743652344	-2293.35107421875	1401.153686523438	-112.6524887084961	-2393.32568359375	967.9490966796876	-428.3189392089844	-2383.259521484375	958.3470458984376	-122.0023498535156	-2334.05224609375	920.5650024414062	-411.0085144042969	-2627.183349609375	475.0253295898438	-328.0240783691406	-2322.1611328125	914.69140625	-147.3913421630859	-2458.5400390625	842.1497802734375	-424.963134765625	-2470.699462890625	858.6609497070312	-123.6087799072266	-2475.02099609375	1009.796936035156	-273.7896423339844	-2237.499267578125	654.3883056640625	-447.3561096191406	-2442.525390625	490.4186096191406	-420.4375915527344	-2315.029296875	620.0852661132812	-453.14501953125	-2196.7275390625	559.6974487304688	-432.7487182617188	-2508.704833984375	76.41499328613281	-172.4003295898438	-2345.81884765625	506.5162353515625	-441.242431640625	-2282.85595703125	531.205810546875	-434.2305603027344	-2338.453125	587.0692749023438	-127.0664367675781	-2589.25390625	233.9503784179688	-351.9591979980469	-2416.366455078125	589.0731201171875	-127.4768371582031	-2342.114990234375	489.5445861816406	-158.1757965087891	-2422.075927734375	494.8013000488281	-151.8795776367188	-2229.193115234375	500.3648376464844	-437.0953979492188	-2390.418212890625	457.982421875	-151.3406677246094	-2331.24853515625	429.717041015625	-427.3297729492188	-2429.178466796875	413.0024108886719	-413.4646301269531	-2412.205078125	334.9343872070312	-161.0333557128906	-2620.502685546875	281.9107666015625	-411.5915222167969	-2478.76318359375	379.2020874023438	-141.5147552490234	-2645.781005859375	457.3475036621094	-299.1220092773438	-2472.948974609375	252.7835388183594	-176.3280181884766	-2535.5908203125	298.2598266601562	-157.7705993652344	-2606.307861328125	420.8121337890625	-385.4670104980469	-2614.704345703125	134.1471099853516	-198.8838195800781	-2454.763916015625	68.47340393066406	-241.1840667724609	-2685.953125	131.8104858398438	-254.3371124267578	-2678.62646484375	98.00658416748048	-282.1129455566406	-2691.6728515625	108.5615081787109	-227.0608978271484	-2647.36572265625	467.5005798339844	-353.5780334472656
